<svg width="2177" height="185" viewBox="0 0 2177 185" fill="none" xmlns="http://www.w3.org/2000/svg">
<path fill-rule="evenodd" clip-rule="evenodd" d="M100.108 6.67401C93.1525 12.221 91.4695 13.148 90.1075 12.184C80.3565 5.29001 71.2675 1.949 60.3545 1.249C46.0975 0.335003 34.7115 4.62801 24.3505 14.826C8.26153 30.66 0.0765306 56.684 0.000530606 92.251C-0.103469 140.653 15.0785 168.451 47.4685 179.166C53.4995 181.161 56.4055 181.472 68.4685 181.418C80.2865 181.364 83.3915 181.014 88.3875 179.17C102.996 173.779 113.329 163.299 118.634 148.494C119.977 144.746 120.427 140.49 120.431 131.494C120.437 119.956 120.319 119.282 117.368 113.994C114.195 108.309 105.687 100.752 103.009 101.24C101.833 101.454 101.605 103.247 101.833 110.5C102.553 133.332 95.6625 150.959 83.5635 157.236C78.1885 160.025 67.4035 160.241 60.7975 157.691C55.0495 155.473 48.6245 148.727 45.4735 141.6C38.5135 125.863 36.1895 95.823 39.4315 63.494C41.7265 40.617 46.2545 27.201 53.7755 21.002C67.3475 9.81401 83.4425 24.555 100.511 63.805C103.712 71.167 103.995 71.494 107.162 71.494H110.469L110.732 35.744C110.939 7.47901 110.73 -0.0049975 109.732 2.50318e-06C109.037 0.0030025 104.706 3.00601 100.108 6.67401ZM2150.34 8.46001C2142.11 15.41 2141.36 15.825 2139.48 14.468C2127.9 6.08401 2117.81 2.798 2103.47 2.734C2091.13 2.679 2085.04 4.08901 2076.5 8.97501C2063.12 16.628 2056.46 30.343 2056.56 49.994C2056.66 67.868 2060.55 78.725 2070.4 88.562C2079.76 97.921 2086.24 100.685 2116.11 108.056C2131 111.732 2141.26 118.359 2145.1 126.777C2147.55 132.155 2148.08 145.995 2145.99 150.042C2137.38 166.718 2114.07 166.479 2095.21 149.519C2087.1 142.233 2077.93 127.56 2072.69 113.494C2071.25 109.614 2071.05 109.485 2066.08 109.192L2060.97 108.889V146.942C2060.97 174.699 2061.28 184.994 2062.11 184.994C2062.73 184.994 2066.44 182.138 2070.36 178.648C2080 170.046 2081.1 169.526 2084.34 172.07C2092.46 178.457 2111.16 183.994 2124.62 183.994C2132.74 183.994 2144.61 181.569 2151.59 178.483C2158.65 175.363 2167.48 166.908 2171.03 159.877C2176.91 148.232 2178.66 129.901 2175.34 114.867C2170.1 91.148 2156.53 80.392 2124.97 74.943C2111.35 72.59 2109.29 72.129 2103.02 70.014C2091.09 65.989 2085.29 59.934 2082.99 49.091C2079.68 33.515 2090.99 19.918 2106.19 21.18C2121.41 22.442 2137.24 37.259 2149.12 61.342C2152.3 67.795 2152.51 67.994 2156.18 67.994H2159.97V34.494C2159.97 16.069 2159.79 0.994006 2159.58 0.994006C2159.36 0.994006 2155.21 4.35401 2150.34 8.46001ZM199.469 2.92201C176.64 6.21601 157.539 25.781 148.632 54.994C139.692 84.319 140.097 121.974 149.59 143.994C160.035 168.224 178.605 181.894 203.507 183.684C231.301 185.681 255.216 169.725 265.584 142.267C270.642 128.868 271.472 122.926 271.419 100.494C271.356 74.139 268.779 60.062 260.69 41.867C248.439 14.312 224.79 -0.730993 199.469 2.92201ZM762.469 2.955C736.073 7.206 716.763 31.076 708.763 69.345C707.035 77.608 706.625 83.21 706.555 99.494C706.461 121.027 707.057 125.419 712.031 139.905C715.944 151.302 720.146 158.09 728.552 166.593C746.477 184.725 775.004 189.082 798.969 177.348C809.438 172.222 820.169 161.397 825.589 150.494C829.251 143.129 830.48 139.544 834.159 125.494C835.949 118.66 835.941 82.641 834.148 74.494C829.606 53.857 827.79 48.299 821.862 36.905C813.977 21.75 800.958 9.581 787.844 5.107C781.163 2.828 769.436 1.833 762.469 2.955ZM282.616 4.75601C282.349 5.18801 286.707 8.415 292.3 11.928C297.893 15.44 303.931 19.39 305.719 20.705L308.969 23.096V89.979V156.863L295.525 167.178C288.131 172.852 282.206 177.944 282.358 178.494C282.7 179.728 358.415 180.403 360.581 179.192C361.69 178.571 358.936 175.923 349.513 168.548L336.969 158.732V98.663C336.969 63.645 337.339 38.99 337.857 39.544C338.345 40.066 340.182 46.119 341.94 52.994C343.698 59.869 346.023 68.84 347.107 72.93C348.192 77.02 351.332 89.17 354.086 99.93C356.84 110.69 360.393 124.444 361.981 130.494C363.568 136.544 366.946 149.585 369.486 159.474C372.027 169.362 374.58 178.025 375.16 178.724C376.517 180.359 385.101 180.374 387.187 178.744C388.067 178.057 389.758 173.669 390.945 168.994C392.132 164.319 393.938 157.344 394.96 153.494C395.981 149.644 398.235 141.094 399.969 134.494C401.703 127.894 403.953 119.344 404.969 115.494C405.985 111.644 408.235 103.094 409.969 96.494C411.703 89.894 413.955 81.344 414.973 77.494C415.991 73.644 418.45 64.296 420.437 56.722C424.842 39.928 425.546 37.947 426.378 39.994C426.714 40.819 426.871 67.819 426.729 99.994L426.469 158.494L413.22 168.436C404.315 175.118 400.381 178.637 401.22 179.17C402.889 180.23 485.105 180.194 486.779 179.133C487.71 178.542 484.482 175.294 475.613 167.898C468.752 162.176 462.881 156.594 462.567 155.494C461.655 152.299 461.912 24.633 462.833 23.181C463.291 22.458 468.763 18.394 474.994 14.149C481.225 9.90401 486.506 5.88301 486.729 5.21301C487.044 4.26801 478.332 3.99401 448.031 3.99401H408.926L408.031 6.24401C407.539 7.48101 406.667 10.519 406.094 12.994C405.017 17.647 401.75 31.428 397.502 49.241C396.157 54.88 393.843 64.669 392.36 70.994C388.253 88.503 386.839 93.274 386.03 92.344C385.323 91.531 383.563 84.539 375.37 49.994C373.348 41.469 370.009 27.744 367.951 19.494L364.209 4.49401L323.655 4.233C301.35 4.089 282.883 4.32501 282.616 4.75601ZM496.136 4.93501C496.319 5.45301 502.319 9.62901 509.469 14.216L522.469 22.555L522.726 89.617L522.982 156.679L508.932 167.522C498.422 175.634 495.254 178.574 496.358 179.192C498.523 180.404 574.242 179.728 574.562 178.494C574.705 177.944 569.455 173.301 562.896 168.175L550.969 158.857V98.725C550.969 65.653 551.345 39.021 551.805 39.544C552.265 40.066 553.584 44.319 554.736 48.994C557.011 58.227 564.962 89.317 569.953 108.494C573.074 120.485 579.124 143.908 584.921 166.443C586.611 173.015 588.551 178.745 589.232 179.178C590.873 180.22 599.119 180.186 600.784 179.13C601.507 178.671 603.145 174.291 604.427 169.395C606.683 160.773 612.864 137.403 617.492 119.994C618.734 115.319 621.407 105.194 623.432 97.494C625.456 89.794 627.948 80.344 628.969 76.494C629.99 72.644 632.474 63.194 634.492 55.494C636.509 47.794 638.554 40.819 639.034 39.994C639.54 39.126 639.92 63.821 639.938 98.594L639.969 158.694L626.96 168.425C619.805 173.777 614.206 178.569 614.518 179.075C615.228 180.223 698.955 180.289 700.762 179.143C701.67 178.567 698.169 175.084 689.012 167.453L675.969 156.584V89.795V23.007L680.219 19.926C682.556 18.232 688.181 14.35 692.719 11.299C697.257 8.24701 700.969 5.356 700.969 4.872C700.969 4.383 683.756 3.99401 662.091 3.99401C632.154 3.99401 622.998 4.28101 622.279 5.24401C621.765 5.93201 620.816 8.74401 620.169 11.494C616.524 26.992 606.901 67.438 603.336 82.244C601.913 88.156 600.446 92.994 600.076 92.994C599.706 92.994 597.436 84.781 595.034 74.744C592.631 64.707 589.225 50.644 587.464 43.494C585.702 36.344 582.994 25.094 581.445 18.494C579.896 11.894 578.2 5.93201 577.677 5.24401C576.498 3.69701 495.589 3.39001 496.136 4.93501ZM850.208 5.24401C850.431 5.93201 855.419 10.09 861.292 14.485L871.969 22.475V89.651V156.828L858.443 167.606C848.383 175.623 845.29 178.594 846.375 179.201C848.528 180.406 926.228 179.721 926.625 178.494C926.803 177.944 920.879 173.241 913.46 168.043L899.969 158.592V109.571C899.969 61.062 899.988 60.57 901.906 62.522C903.684 64.331 923.789 90.509 974.247 156.716C984.819 170.589 994.029 181.951 994.713 181.966C995.693 181.988 996.011 165.065 996.213 102.302L996.469 22.61L1008.7 13.948C1015.42 9.18301 1020.64 4.99501 1020.28 4.64001C1019.22 3.58301 943.969 3.87701 943.969 4.93801C943.969 5.45701 949.354 9.62001 955.935 14.188L967.901 22.494L967.935 56.744C967.954 75.582 967.632 90.975 967.219 90.952C966.399 90.905 966.015 90.402 927.964 39.244L901.742 3.99401H875.773C855.447 3.99401 849.891 4.26601 850.208 5.24401ZM1102.56 4.843C1102.27 5.309 1102.46 19.822 1102.98 37.093C1103.5 54.363 1103.93 70.438 1103.94 72.814C1103.97 76.716 1104.19 77.102 1106.22 76.814C1108.54 76.484 1111.22 71.871 1118.89 54.994C1120.76 50.869 1124.9 41.962 1128.09 35.201L1133.88 22.908L1141.68 23.201L1149.47 23.494L1149.73 89.383C1149.89 132.59 1149.64 155.69 1148.97 156.487C1148.42 157.155 1140.54 162.351 1131.46 168.032C1120.5 174.884 1115.37 178.632 1116.21 179.163C1117.89 180.233 1219.1 180.196 1220.79 179.125C1221.7 178.546 1216.52 174.949 1204.04 167.51L1185.97 156.733V89.864V22.994H1193.94H1201.91L1204.34 28.244C1205.68 31.132 1208.56 37.319 1210.75 41.994C1217.43 56.28 1221.58 65.224 1224.32 71.244C1226.17 75.298 1227.5 76.994 1228.83 76.994C1230.56 76.994 1230.78 75.884 1231.33 64.744C1231.67 58.006 1232.23 41.582 1232.58 28.244L1233.22 3.99401H1168.15C1132.37 3.99401 1102.85 4.376 1102.56 4.843ZM1238.97 4.954C1238.97 5.483 1243.81 9.13701 1249.72 13.075C1255.63 17.014 1261.26 20.926 1262.22 21.77C1263.85 23.202 1263.97 27.733 1263.97 90.045V156.786L1251.52 167.14C1244.67 172.835 1239.2 177.944 1239.35 178.494C1239.53 179.14 1254.1 179.494 1280.47 179.494C1306.83 179.494 1321.4 179.14 1321.59 178.494C1321.75 177.944 1317.19 173.444 1311.46 168.494L1301.03 159.494L1301 129.744L1300.97 99.994H1326.47H1351.97V129.438V158.882L1341.47 168.184C1335.69 173.3 1331.12 177.938 1331.3 178.49C1331.71 179.734 1411.96 180.407 1413.19 179.177C1413.65 178.714 1408.39 173.53 1401.5 167.657L1388.97 156.977L1389.01 89.736L1389.05 22.494L1401.41 13.994C1408.21 9.31901 1413.56 5.15701 1413.31 4.74401C1412.63 3.62701 1330.97 3.809 1330.97 4.927C1330.97 5.44 1333.11 7.578 1335.72 9.677C1338.33 11.776 1341.04 14.039 1341.75 14.706C1342.46 15.372 1345.04 17.361 1347.5 19.125L1351.97 22.333V49.681V77.028L1326.72 76.761L1301.47 76.494L1301.2 49.429L1300.94 22.364L1311.13 14.429C1316.73 10.065 1321.5 5.93201 1321.73 5.24401C1322.05 4.25801 1313.37 3.99401 1280.55 3.99401C1254.64 3.99401 1238.97 4.356 1238.97 4.954ZM1421.1 4.831C1421.3 5.401 1426.87 9.614 1433.47 14.193L1445.47 22.519L1445.73 89.604L1445.98 156.689L1433.44 167.38C1426.54 173.26 1421.17 178.504 1421.49 179.032C1422.25 180.264 1507.64 180.339 1508.4 179.108C1508.7 178.621 1502.88 173.665 1495.46 168.095L1481.97 157.967V128.181C1481.97 106.347 1482.29 98.074 1483.17 97.194C1484.85 95.512 1493.61 95.7 1499.85 97.55C1506.67 99.578 1512.2 104.634 1514.83 111.262C1517.04 116.859 1519.96 132.119 1519.97 138.168C1519.97 148.441 1527.82 177.009 1531.22 179.17C1532.67 180.091 1573.03 180.291 1575.38 179.389C1576.58 178.929 1576.01 178.149 1572.99 176.12C1565.23 170.91 1561.51 163.892 1557.43 146.793C1551.89 123.607 1549.21 115.574 1544.37 107.753C1541.1 102.454 1534.51 95.52 1530.22 92.852C1528.43 91.74 1526.97 90.266 1526.97 89.576C1526.97 88.853 1529.87 87.621 1533.83 86.666C1542.22 84.639 1546.45 82.889 1550.8 79.643C1559.59 73.087 1563.5 62.884 1562.74 48.466C1562.33 40.581 1561.77 38.296 1558.69 31.906C1552.14 18.336 1541.78 11.455 1520.26 6.37901C1514.73 5.07501 1504.85 4.68601 1467.1 4.28601C1435.33 3.94901 1420.85 4.121 1421.1 4.831ZM1582 4.74401C1582.01 5.15601 1587.04 8.86901 1593.18 12.994C1599.32 17.119 1605.16 21.281 1606.16 22.244C1607.87 23.899 1607.97 27.575 1607.97 89.786V155.578L1603.72 159.629C1601.38 161.858 1595.51 166.971 1590.66 170.993C1584.37 176.22 1582.23 178.542 1583.16 179.134C1583.88 179.59 1616.03 179.97 1654.6 179.979C1712.74 179.991 1724.92 179.76 1725.86 178.625C1726.67 177.649 1726.92 167.677 1726.73 143.875C1726.48 111.351 1726.42 110.487 1724.47 110.224C1722.82 110.002 1719.98 114.247 1708.41 134.224L1694.36 158.494L1669.91 158.155C1656.47 157.968 1645.12 157.488 1644.7 157.088C1644.28 156.689 1644.06 143.791 1644.2 128.428L1644.47 100.494L1654.1 100.209L1663.74 99.924L1672.92 114.975C1677.98 123.252 1682.53 129.767 1683.04 129.451C1683.59 129.112 1683.97 112.661 1683.97 89.435C1683.97 58.077 1683.71 49.994 1682.69 49.994C1681.99 49.994 1677.64 56.296 1673.04 63.999C1668.43 71.701 1664.16 78.421 1663.54 78.932C1662.9 79.467 1658.62 79.571 1653.45 79.177L1644.47 78.494L1644.2 51.377L1643.94 24.261L1647.7 23.638C1649.77 23.296 1659.9 23.011 1670.21 23.005L1688.94 22.994L1691.27 26.744C1692.54 28.807 1698.02 38.481 1703.44 48.244C1710.21 60.441 1713.83 65.994 1715 65.994C1716.55 65.994 1716.77 63.303 1717.43 36.059C1717.84 19.595 1717.87 5.64501 1717.51 5.05901C1716.74 3.82001 1581.95 3.50601 1582 4.74401ZM1762.97 4.806C1762.97 5.252 1768.16 9.163 1774.51 13.498C1780.85 17.832 1786.46 21.879 1786.97 22.492C1787.55 23.195 1786.97 27.283 1785.41 33.55C1784.04 39.019 1781.84 47.994 1780.51 53.494C1779.17 58.994 1776.91 68.219 1775.47 73.994C1774.03 79.769 1771.76 88.994 1770.42 94.494C1769.08 99.994 1765.08 116.165 1761.53 130.429L1755.07 156.364L1743.93 167.537C1735.19 176.302 1733.15 178.848 1734.46 179.352C1737.54 180.535 1802.79 180.096 1803.53 178.887C1803.93 178.254 1800.08 173.627 1794.55 168.073L1784.88 158.366L1785.97 153.93C1786.57 151.49 1787.66 147.019 1788.38 143.994L1789.7 138.494L1809.28 138.223L1828.87 137.952L1829.49 141.723C1829.84 143.797 1830.51 146.619 1830.98 147.994C1831.46 149.369 1832.13 152.354 1832.48 154.627L1833.1 158.761L1823.4 168.438C1816.92 174.895 1814.02 178.447 1814.69 179.115C1815.35 179.773 1844.93 179.99 1901.08 179.749C1985.09 179.387 1986.58 179.346 1993.3 177.235C2026.51 166.802 2044.97 136.885 2044.97 93.494C2044.97 53.199 2028.46 23.616 1998.97 11.038C1984.53 4.881 1983.27 4.74901 1934.72 4.26501C1906.95 3.98801 1889.97 4.177 1889.97 4.764C1889.97 5.285 1895.59 9.48701 1902.45 14.102L1914.93 22.494L1914.95 89.692L1914.97 156.89L1903.04 166.937C1896.4 172.527 1890.52 176.749 1889.79 176.455C1889.06 176.165 1884.06 171.548 1878.68 166.195L1868.9 156.463L1866.98 148.478C1865.93 144.087 1864.34 137.344 1863.46 133.494C1862.58 129.644 1861.45 124.919 1860.96 122.994C1860.47 121.069 1859.34 116.344 1858.45 112.494C1857.56 108.644 1856.4 103.919 1855.88 101.994C1854.74 97.719 1848.15 70.027 1846.97 64.494C1846.5 62.294 1845.38 57.569 1844.48 53.994C1843.58 50.419 1842.46 45.694 1841.99 43.494C1841.52 41.294 1840.23 35.903 1839.13 31.514C1838.03 27.126 1837.33 23.218 1837.57 22.831C1837.81 22.443 1843.17 18.461 1849.49 13.981C1855.8 9.50101 1860.97 5.421 1860.97 4.915C1860.97 4.366 1841.16 3.99401 1811.97 3.99401C1785.02 3.99401 1762.97 4.359 1762.97 4.806ZM198.768 23.037C192.137 26.539 187.358 35.297 184.604 48.994C181.53 64.284 180.969 71.613 180.989 96.263C181.009 121.879 181.79 130.004 185.407 142.232C189.862 157.295 199.599 164.018 213.06 161.326C218.821 160.174 225.049 152.818 228.158 143.494C232.795 129.59 233.446 123.542 233.322 95.494C233.178 62.939 230.829 45.419 225.043 33.75C222.201 28.019 221.095 26.698 216.563 23.622C211.736 20.346 204.324 20.103 198.768 23.037ZM763.419 22.401C754.875 26.122 749.251 39.117 746.023 62.603C744.304 75.108 744.52 119.69 746.349 129.994C748.949 144.64 753.179 153.765 759.662 158.71C762.913 161.189 764.143 161.494 770.891 161.494C777.291 161.494 778.993 161.12 781.838 159.091C788.481 154.353 792.815 144.714 795.948 127.71C797.509 119.24 797.509 72.457 795.948 62.494C794.34 52.228 791.81 39.767 790.979 38.018C786.751 29.125 783.378 24.813 778.768 22.405C775.398 20.644 767.456 20.642 763.419 22.401ZM1482.64 23.661C1482.27 24.027 1481.97 35.944 1481.97 50.142V75.956L1484.61 76.619C1486.06 76.983 1493.3 77.028 1500.68 76.718C1512.48 76.224 1514.77 75.836 1519.47 73.535C1523.93 71.355 1525.26 70.049 1527.4 65.758C1532.4 55.713 1530.17 38.851 1522.71 30.353C1517.08 23.94 1513.86 22.994 1497.68 22.994C1489.77 22.994 1483 23.294 1482.64 23.661ZM1951.58 24.576C1950.62 27.079 1950.9 156.338 1951.87 157.869C1952.57 158.97 1955.8 159.156 1968.1 158.802C1981.22 158.426 1984.05 158.054 1987.47 156.265C1996.21 151.686 2001.42 143.049 2004.63 127.818C2007.16 115.849 2007.18 77.581 2004.66 67.494C1999.17 45.469 1989.69 31.454 1976.19 25.372C1971.84 23.413 1969.26 22.994 1961.55 22.994C1953.93 22.994 1952.07 23.289 1951.58 24.576ZM1808.13 50.169C1806.76 55.967 1805.96 59.572 1803.48 70.994C1802.59 75.119 1801.26 81.194 1800.53 84.494C1799.8 87.794 1798.63 93.194 1797.94 96.494C1797.24 99.794 1796.06 104.951 1795.32 107.954C1794.58 110.957 1793.97 113.77 1793.97 114.204C1793.97 114.639 1800.72 114.994 1808.97 114.994C1825.82 114.994 1825.14 115.374 1823.06 107.11C1821.7 101.751 1820.41 95.313 1816.99 76.994C1815.3 67.919 1813.48 58.867 1812.95 56.878C1812.41 54.889 1811.97 52.163 1811.97 50.819C1811.97 49.476 1811.39 47.581 1810.68 46.61C1809.53 45.045 1809.24 45.451 1808.13 50.169Z" fill="black"/>
</svg>
